<?xml version="1.0" encoding="utf-8"?>
<svg viewBox="1.505 2.031 42.244 32.201" width="850px" height="647.923px" xmlns="http://www.w3.org/2000/svg">
  <rect id="rect" x="4.626" y="5.155" width="36" height="25.956" rx="1" ry="1" stroke="rgba(0, 0, 0, 0)" style="stroke-width: 6px; fill: none;"/>
  <path fill="#FFCD05" d="M 4.627 27.076 C 4.627 29.285 6.417 31.076 8.627 31.076 L 36.627 31.076 C 38.836 31.076 40.627 29.285 40.627 27.076 L 40.627 23.076 L 4.627 23.076 L 4.627 27.076 Z"/>
  <path fill="#ED1F24" d="M 4.627 14.076 L 40.627 14.076 L 40.627 23.076 L 4.627 23.076 L 4.627 14.076 Z"/>
  <path fill="#141414" d="M 36.627 5.076 L 8.627 5.076 C 6.417 5.076 4.627 6.866 4.627 9.076 L 4.627 14.076 L 40.627 14.076 L 40.627 9.076 C 40.627 6.866 38.836 5.076 36.627 5.076 Z"/>
</svg>