<svg xmlns="http://www.w3.org/2000/svg" version="1.1" xmlns:xlink="http://www.w3.org/1999/xlink" xmlns:svgjs="http://svgjs.dev/svgjs" width="1000" height="623" viewBox="0 0 1000 623"><g transform="matrix(1,0,0,1,-0.6060606060606233,0.2522267206477409)"><svg viewBox="0 0 396 247" data-background-color="#1b4571" preserveAspectRatio="xMidYMid meet" height="623" width="1000" xmlns="http://www.w3.org/2000/svg" xmlns:xlink="http://www.w3.org/1999/xlink"><g id="tight-bounds" transform="matrix(1,0,0,1,0.2400000000000091,-0.09999999999999432)"><svg viewBox="0 0 395.52 247.2" height="247.2" width="395.52"><g><svg></svg></g><g><svg viewBox="0 0 395.52 247.2" height="247.2" width="395.52"><g transform="matrix(1,0,0,1,76.13866858789625,47.215199999999996)"><svg viewBox="0 0 243.24266282420749 152.7696" height="152.7696" width="243.24266282420749"><g><svg viewBox="0 0 243.24266282420749 152.7696" height="152.7696" width="243.24266282420749"><g><svg viewBox="0 0 243.24266282420749 152.7696" height="152.7696" width="243.24266282420749"><g><svg viewBox="0 0 243.24266282420749 152.7696" height="152.7696" width="243.24266282420749"><g id="textblocktransform"><svg viewBox="0 0 243.24266282420749 152.7696" height="152.7696" width="243.24266282420749" id="textblock"><g><svg viewBox="0 0 243.24266282420749 152.7696" height="152.7696" width="243.24266282420749"><g transform="matrix(1,0,0,1,0,0)"><svg width="243.24266282420749" viewBox="-0.05000000074505806 -33.70000076293945 55.25 34.70000076293945" height="152.7696" data-palette-color="#ffffff"><path d="M18.4-12.75L18.4-3 22.55-2.45 22.5 0 8.75 0 8.45-1.6Q9.85-2.35 12.4-3.3L12.4-3.3 12.4-12.5 3.1-29.85-0.05-30.25 0-32.7 12.35-32.7 12.65-31.1 9.6-29.75 14.65-20.2 16-16.05 16.25-16.05 23.1-29.75 19.25-30.25 19.3-32.7 30.9-32.7 31.2-31.1Q29.55-30.2 27.45-29.5L27.45-29.5 18.4-12.75ZM55.2-8.85L55.2-8.85Q55.2-4.5 51.87-1.75 48.55 1 43.5 1L43.5 1Q40.65 1 37.37 0.1 34.1-0.8 32.25-2.35L32.25-2.35 32.3-2.5 32.25-4.25Q32.25-8.1 32.9-11.2L32.9-11.2 36.05-11.2 37.65-4.6Q40.8-2.7 45.15-2.7L45.15-2.7 46.25-2.75Q49.05-4.15 49.05-7.4L49.05-7.4Q49.05-10.2 45.65-12.15L45.65-12.15 37.75-16.2Q32.4-19.35 32.4-24.25L32.4-24.25Q32.4-28.45 35.85-31.08 39.3-33.7 44.65-33.7L44.65-33.7Q48.75-33.7 53.7-32.05L53.7-32.05Q53.95-27.85 53.05-23.2L53.05-23.2 49.7-23.2 48.75-28.4Q45.95-30.05 42.15-30.05L42.15-30.05 40.65-30Q38.3-28.55 38.3-25.7L38.3-25.7Q38.3-23.05 41.9-21.15L41.9-21.15 49.4-17.45Q55.2-14.2 55.2-8.85Z" opacity="1" transform="matrix(1,0,0,1,0,0)" fill="#ffffff" class="undefined-text-0" data-fill-palette-color="primary" id="text-0"></path></svg></g></svg></g></svg></g></svg></g></svg></g></svg></g></svg></g><path d="M258.44 41.215L258.44 0 11.24 0 11.24 247.2 258.44 247.2 258.44 205.985 244.663 205.985 244.663 233.423 25.017 233.423 25.017 13.777 244.663 13.777 244.663 41.215Z" fill="#ffffff" stroke="transparent" data-fill-palette-color="primary"></path></svg></g><defs></defs></svg><rect width="395.52" height="247.2" fill="none" stroke="none" visibility="hidden"></rect></g></svg></g></svg>