<?xml version="1.0" encoding="utf-8"?>
<svg viewBox="1.505 2.031 42.244 32.201" width="850px" height="647.923px" xmlns="http://www.w3.org/2000/svg">
  <rect x="4.626" y="5.155" width="36" height="25.956" rx="1" ry="1" style="paint-order: fill; stroke: rgb(0, 30, 255); stroke-width: 6px; fill: none;"/>
  <path fill="#FFCD05" d="M 4.627 27.076 C 4.627 29.285 6.417 31.076 8.627 31.076 L 36.627 31.076 C 38.836 31.076 40.627 29.285 40.627 27.076 L 40.627 23.076 L 4.627 23.076 L 4.627 27.076 Z"/>
  <path fill="#ED1F24" d="M 4.627 14.076 L 40.627 14.076 L 40.627 23.076 L 4.627 23.076 L 4.627 14.076 Z"/>
  <path fill="#141414" d="M 36.627 5.076 L 8.627 5.076 C 6.417 5.076 4.627 6.866 4.627 9.076 L 4.627 14.076 L 40.627 14.076 L 40.627 9.076 C 40.627 6.866 38.836 5.076 36.627 5.076 Z"/>
  <path style="fill: rgb(65, 71, 155);" d="M 37.998 5.022 L 7.289 5.022 C 5.796 5.022 4.584 6.358 4.584 8.006 L 4.584 28.142 C 4.584 29.79 5.796 31.125 7.289 31.125 L 37.998 31.125 C 39.493 31.125 40.703 29.79 40.703 28.142 L 40.703 8.006 C 40.703 6.358 39.493 5.022 37.998 5.022 Z"/>
  <path style="fill: rgb(245, 245, 245);" d="M 40.666 7.512 C 40.453 6.099 39.339 5.022 37.998 5.022 L 37.294 5.022 L 25.757 13.36 L 25.757 5.022 L 19.53 5.022 L 19.53 13.36 L 7.993 5.022 L 7.289 5.022 C 5.947 5.022 4.835 6.099 4.623 7.512 L 14.482 14.639 L 4.584 14.639 L 4.584 21.509 L 14.482 21.509 L 4.623 28.635 C 4.835 30.049 5.947 31.125 7.289 31.125 L 7.993 31.125 L 19.53 22.788 L 19.53 31.125 L 25.757 31.125 L 25.757 22.788 L 37.294 31.125 L 37.998 31.125 C 39.339 31.125 40.453 30.049 40.666 28.635 L 30.805 21.508 L 40.703 21.508 L 40.703 14.639 L 30.805 14.639 L 40.666 7.512 Z"/>
  <g transform="matrix(0.070545, 0, 0, 0.077818, 4.585371, -1.848224)" style="">
    <polygon style="fill:#FF4B55;" points="282.483,88.276 229.517,88.276 229.517,229.517 0,229.517 0,282.483 229.517,282.483 &#10;&#9;&#9;229.517,423.724 282.483,423.724 282.483,282.483 512,282.483 512,229.517 282.483,229.517 &#9;"/>
    <path style="fill:#FF4B55;" d="M24.793,421.252l186.583-121.114h-32.428L9.224,410.31 C13.377,415.157,18.714,418.955,24.793,421.252z"/>
    <path style="fill:#FF4B55;" d="M346.388,300.138H313.96l180.716,117.305c5.057-3.321,9.277-7.807,12.287-13.075L346.388,300.138z"/>
    <path style="fill:#FF4B55;" d="M4.049,109.475l157.73,102.387h32.428L15.475,95.842C10.676,99.414,6.749,104.084,4.049,109.475z"/>
    <path style="fill:#FF4B55;" d="M332.566,211.862l170.035-110.375c-4.199-4.831-9.578-8.607-15.699-10.86L300.138,211.862H332.566z"/>
  </g>
</svg>